<?xml version="1.0" standalone="no"?><!DOCTYPE svg PUBLIC "-//W3C//DTD SVG 1.1//EN" "http://www.w3.org/Graphics/SVG/1.1/DTD/svg11.dtd"><svg xmlns:xlink="http://www.w3.org/1999/xlink" version="1.1" style="font-family:'lucida grande', 'lucida sans unicode', arial, helvetica, sans-serif;font-size:12px;" xmlns="http://www.w3.org/2000/svg" width="600" height="400"><desc>Created with Highcharts 4.2.7</desc><defs><clipPath id="highcharts-61"><rect x="0" y="0" width="580" height="334"></rect></clipPath></defs><g class="highcharts-series-group"><g class="highcharts-series highcharts-series-0" transform="translate(10,10) scale(1 1)"><path fill="#434343" d="M 289.96914350964016 21.500003142320168 A 151.5 151.5 0 0 1 412.68338252778585 261.887781227461 L 290 173 A 0 0 0 0 0 290 173 Z" stroke="#FFFFFF" stroke-width="1" stroke-linejoin="round" transform="translate(0,0)"></path><path fill="#9772b6" d="M 412.5944334196869 262.0104201456546 A 151.5 151.5 0 1 1 167.35283576830108 84.0622515130798 L 290 173 A 0 0 0 1 0 290 173 Z" stroke="#FFFFFF" stroke-width="1" stroke-linejoin="round" transform="translate(0,0)"></path><path fill="#ddb37b" d="M 167.44183482554206 83.93964883815987 A 151.5 151.5 0 0 1 289.78956953938217 21.50014614191457 L 290 173 A 0 0 0 0 0 290 173 Z" stroke="#FFFFFF" stroke-width="1" stroke-linejoin="round" transform="translate(-5,-9)"></path></g><g class="highcharts-markers highcharts-series-0" transform="translate(10,10) scale(1 1)"></g></g><g class="highcharts-data-labels highcharts-series-0" transform="translate(10,10) scale(1 1)" opacity="1"><path fill="none" d="M 456.7176841401888 90.10072429727227 C 451.7176841401888 90.10072429727227 444.58963194668183 93.73264829518864 434.7885601806098 98.72654379232365 L 424.9874884145378 103.72043928945867" stroke="#434343" stroke-width="1"></path><path fill="none" d="M 178.31697670891617 319.336584479053 C 183.31697670891617 319.336584479053 188.01925872725593 312.86444852405344 194.48489650247313 303.965261585929 L 200.95053427769034 295.06607464780456" stroke="#9772b6" stroke-width="1"></path><path fill="none" d="M 202.60072429727225 10.782315859811245 C 207.60072429727225 10.782315859811245 211.2326482951886 17.910368053318187 216.2265437923236 27.711439819390232 L 221.22043928945862 37.51251158546228" stroke="#ddb37b" stroke-width="1"></path><g style="cursor:pointer;" transform="translate(462,80)"><text x="5" style="font-size:10px;font-weight:bold;font-family:'arial', sans-serif;color:#000000;text-shadow:0 0 6px #ffffff, 0 0 3px #ffffff;fill:#000000;text-rendering:geometricprecision;" y="15"><tspan>Frontend</tspan></text></g><g style="cursor:pointer;" transform="translate(122,309)"><text x="5" style="font-size:10px;font-weight:bold;font-family:'arial', sans-serif;color:#000000;text-shadow:0 0 6px #ffffff, 0 0 3px #ffffff;fill:#000000;text-rendering:geometricprecision;" y="15"><tspan>Backend</tspan></text></g><g style="cursor:pointer;" transform="translate(170,1)"><text x="5" style="font-size:10px;font-weight:bold;font-family:'arial', sans-serif;color:#000000;text-shadow:0 0 6px #ffffff, 0 0 3px #ffffff;fill:#000000;text-rendering:geometricprecision;" y="15"><tspan>Tea</tspan></text></g></g><g class="highcharts-legend" transform="translate(179,356)"><g><g><g class="highcharts-legend-item" transform="translate(8,3)"><text x="21" style="color:#333;font-size:9pt;font-weight:normal;cursor:pointer;font-family:'lucida grande','lucida sans unicode',arial,helvetica,sans-serif;text-transform:none;fill:#333;" text-anchor="start" y="15">Frontend</text><rect x="0" y="4" width="16" height="12" fill="#434343"></rect></g><g class="highcharts-legend-item" transform="translate(101.328125,3)"><text x="21" y="15" style="color:#333;font-size:9pt;font-weight:normal;cursor:pointer;font-family:'lucida grande','lucida sans unicode',arial,helvetica,sans-serif;text-transform:none;fill:#333;" text-anchor="start">Backend</text><rect x="0" y="4" width="16" height="12" fill="#9772b6"></rect></g><g class="highcharts-legend-item" transform="translate(190.703125,3)"><text x="21" y="15" style="color:#333;font-size:9pt;font-weight:normal;cursor:pointer;font-family:'lucida grande','lucida sans unicode',arial,helvetica,sans-serif;text-transform:none;fill:#333;" text-anchor="start">Tea</text><rect x="0" y="4" width="16" height="12" fill="#ddb37b"></rect></g></g></g></g><g class="highcharts-tooltip" display="none" style="cursor:default;padding:0;pointer-events:none;white-space:nowrap;" transform="translate(0,0)"><path fill="none" d="M 3.5 0.5 L 13.5 0.5 C 16.5 0.5 16.5 0.5 16.5 3.5 L 16.5 13.5 C 16.5 16.5 16.5 16.5 13.5 16.5 L 3.5 16.5 C 0.5 16.5 0.5 16.5 0.5 13.5 L 0.5 3.5 C 0.5 0.5 0.5 0.5 3.5 0.5"  stroke="black" stroke-opacity="0.049999999999999996" stroke-width="5" transform="translate(1, 1)"></path><path fill="none" d="M 3.5 0.5 L 13.5 0.5 C 16.5 0.5 16.5 0.5 16.5 3.5 L 16.5 13.5 C 16.5 16.5 16.5 16.5 13.5 16.5 L 3.5 16.5 C 0.5 16.5 0.5 16.5 0.5 13.5 L 0.5 3.5 C 0.5 0.5 0.5 0.5 3.5 0.5"  stroke="black" stroke-opacity="0.09999999999999999" stroke-width="3" transform="translate(1, 1)"></path><path fill="none" d="M 3.5 0.5 L 13.5 0.5 C 16.5 0.5 16.5 0.5 16.5 3.5 L 16.5 13.5 C 16.5 16.5 16.5 16.5 13.5 16.5 L 3.5 16.5 C 0.5 16.5 0.5 16.5 0.5 13.5 L 0.5 3.5 C 0.5 0.5 0.5 0.5 3.5 0.5"  stroke="black" stroke-opacity="0.15" stroke-width="1" transform="translate(1, 1)"></path><path fill="rgb(249, 249, 249)" fill-opacity=" .85" d="M 3.5 0.5 L 13.5 0.5 C 16.5 0.5 16.5 0.5 16.5 3.5 L 16.5 13.5 C 16.5 16.5 16.5 16.5 13.5 16.5 L 3.5 16.5 C 0.5 16.5 0.5 16.5 0.5 13.5 L 0.5 3.5 C 0.5 0.5 0.5 0.5 3.5 0.5"></path><text x="8" style="font-size:12px;color:#000000;fill:#000000;" y="20"></text></g><text x="590" text-anchor="end" style="cursor:pointer;color:#909090;font-size:9px;fill:#909090;" y="395">meta-chart.com</text></svg>