<svg xmlns:xlink="http://www.w3.org/1999/xlink" xmlns="http://www.w3.org/2000/svg" version="1.1" style="font-family: &quot;lucida grande&quot;, &quot;lucida sans unicode&quot;, arial, helvetica, sans-serif; font-size: 12px;" width="388.6249958788975" height="335.12499951105565"><rect id="backgroundrect" width="100%" height="100%" x="0" y="0" fill="none" stroke="none"/><desc>Created with Highcharts 4.2.7</desc><defs><clipPath id="highcharts-61"><rect x="0" y="0" width="580" height="334" id="svg_1"/></clipPath></defs><g class="currentLayer" style=""><title>Layer 1</title><g class="highcharts-series-group" id="svg_2"><g class="highcharts-series highcharts-series-0" transform="translate(10,10) scale(1) " id="svg_3"><path fill="#434343" d="M157.96914350964016,19.500003142320168 A151.5,151.5 0 0 1 280.68338252778585,259.887781227461 L158,171 A0,0 0 0 0 158,171 z" stroke="#FFFFFF" stroke-width="1" stroke-linejoin="round" id="svg_4"/><path fill="#9772b6" d="M280.5944334196869,260.0104201456546 A151.5,151.5 0 1 1 35.35283576830108,82.0622515130798 L158,171 A0,0 0 1 0 158,171 z" stroke="#FFFFFF" stroke-width="1" stroke-linejoin="round" id="svg_5"/><path fill="#ddb37b" d="M30.44183482554206,72.93964883815987 A151.5,151.5 0 0 1 152.78956953938217,10.50014614191457 L153,162 A0,0 0 0 0 153,162 z" stroke="#FFFFFF" stroke-width="1" stroke-linejoin="round" id="svg_6"/></g><g class="highcharts-markers highcharts-series-0" transform="translate(10,10) scale(1) " id="svg_7"/></g><g class="highcharts-data-labels highcharts-series-0" transform="translate(10,10) scale(1) " opacity="1" id="svg_8"><path fill="none" d="M324.7176841401888,88.10072429727227 C319.7176841401888,88.10072429727227 312.58963194668183,91.73264829518864 302.7885601806098,96.72654379232365 L292.9874884145378,101.72043928945868 " stroke="#434343" stroke-width="1" id="svg_9"/><path fill="none" d="M46.31697670891617,317.336584479053 C51.31697670891617,317.336584479053 56.01925872725593,310.86444852405344 62.484896502473134,301.965261585929 L68.95053427769034,293.06607464780456 " stroke="#9772b6" stroke-width="1" id="svg_10"/><path fill="none" d="M70.60072429727225,8.782315859811249 C75.60072429727225,8.782315859811249 79.2326482951886,15.910368053318187 84.22654379232361,25.711439819390236 L89.22043928945862,35.51251158546228 " stroke="#ddb37b" stroke-width="1" id="svg_11"/><g style="cursor:pointer;" id="svg_12"><text x="335" style="font-size:10px;font-weight:bold;font-family:'arial', sans-serif;color:#000000;text-shadow:0 0 6px #ffffff, 0 0 3px #ffffff;fill:#000000;text-rendering:geometricprecision;" y="93" id="svg_13"><tspan x="330" y="78" id="svg_14">Frontend</tspan></text></g><g style="cursor:pointer;" id="svg_15"><text x="-5" style="font-size:10px;font-weight:bold;font-family:'arial', sans-serif;color:#000000;text-shadow:0 0 6px #ffffff, 0 0 3px #ffffff;fill:#000000;text-rendering:geometricprecision;" y="322" id="svg_16"><tspan x="-10" y="307" id="svg_17">Backend</tspan></text></g><g style="cursor:pointer;" id="svg_18"><text x="43" style="font-size:10px;font-weight:bold;font-family:'arial', sans-serif;color:#000000;text-shadow:0 0 6px #ffffff, 0 0 3px #ffffff;fill:#000000;text-rendering:geometricprecision;" y="14" id="svg_19"><tspan x="38" y="-1" id="svg_20">Tea</tspan></text></g></g><g class="highcharts-tooltip" display="none" style="cursor: default; padding: 0px; white-space: nowrap;" id="svg_33"><path fill="none" d="M4.5,1.5 L14.5,1.5 C17.5,1.5 17.5,1.5 17.5,4.5 L17.5,14.5 C17.5,17.5 17.5,17.5 14.5,17.5 L4.5,17.5 C1.5,17.5 1.5,17.5 1.5,14.5 L1.5,4.5 C1.5,1.5 1.5,1.5 4.5,1.5 " stroke="black" stroke-opacity="0.049999999999999996" stroke-width="5" id="svg_34"/><path fill="none" d="M4.5,1.5 L14.5,1.5 C17.5,1.5 17.5,1.5 17.5,4.5 L17.5,14.5 C17.5,17.5 17.5,17.5 14.5,17.5 L4.5,17.5 C1.5,17.5 1.5,17.5 1.5,14.5 L1.5,4.5 C1.5,1.5 1.5,1.5 4.5,1.5 " stroke="black" stroke-opacity="0.09999999999999999" stroke-width="3" id="svg_35"/><path fill="none" d="M4.5,1.5 L14.5,1.5 C17.5,1.5 17.5,1.5 17.5,4.5 L17.5,14.5 C17.5,17.5 17.5,17.5 14.5,17.5 L4.5,17.5 C1.5,17.5 1.5,17.5 1.5,14.5 L1.5,4.5 C1.5,1.5 1.5,1.5 4.5,1.5 " stroke="black" stroke-opacity="0.15" stroke-width="1" id="svg_36"/><path fill="rgb(249, 249, 249)" fill-opacity=" .85" d="M 3.5 0.5 L 13.5 0.5 C 16.5 0.5 16.5 0.5 16.5 3.5 L 16.5 13.5 C 16.5 16.5 16.5 16.5 13.5 16.5 L 3.5 16.5 C 0.5 16.5 0.5 16.5 0.5 13.5 L 0.5 3.5 C 0.5 0.5 0.5 0.5 3.5 0.5" id="svg_37"/><text x="8" style="font-size:12px;color:#000000;fill:#000000;" y="20" id="svg_38"/></g></g></svg>